<svg xmlns="http://www.w3.org/2000/svg" xml:space="preserve" id="bread-loaf" x="0" y="0" style="enable-background:new 0 0 128 128" version="1.1" viewBox="0 0 128 128">
  <path d="M77,14.27c-11.12,0-21.51,2.52-29.25,7.1c-2.14,1.27-19.77,12.92-28.37,19.13c-0.12,0.09-0.22,0.18-0.32,0.29
	C13.38,44.9,10,50.18,10,56c0,3.31,1.1,6.5,3.26,9.49C15.05,67.96,16,70.9,16,73.97v31.07c0,4.94,4.02,8.97,8.97,8.97h52.07
	c2.29,0,4.38-0.87,5.96-2.29c0.05-0.03,0.11-0.05,0.16-0.08l24.55-17.54c2.69-1.92,4.29-5.03,4.29-8.33V56.24
	c0-3.07,0.95-6,2.74-8.48c2.16-2.98,3.26-6.18,3.26-9.49C118,24.81,99.99,14.27,77,14.27z M24.97,110c-2.74,0-4.97-2.23-4.97-4.97
	V73.97c0-3.92-1.21-7.66-3.5-10.83C14.84,60.85,14,58.45,14,56c0-10.84,16.94-20,37-20c20.06,0,37,9.16,37,20
	c0,2.45-0.84,4.85-2.5,7.14C83.21,66.3,82,70.05,82,73.97v31.07c0,2.74-2.23,4.97-4.97,4.97H24.97z M111.5,45.41
	c-2.29,3.16-3.5,6.91-3.5,10.83v29.52c0,2.01-0.98,3.91-2.61,5.08L86,104.68V73.97c0-3.07,0.95-6,2.74-8.48
	C90.9,62.5,92,59.31,92,56c0-13.46-18.01-24-41-24c-5.08,0-9.92,0.52-14.37,1.46c6.32-4.25,12.01-7.97,13.16-8.65
	c7.03-4.16,16.95-6.54,27.21-6.54c20.06,0,37,9.16,37,20C114,40.72,113.16,43.12,111.5,45.41z M37,50c-4.96,0-9,4.04-9,9s4.04,9,9,9
	s9-4.04,9-9S41.96,50,37,50z M37,64c-2.76,0-5-2.24-5-5s2.24-5,5-5s5,2.24,5,5S39.76,64,37,64z M72,58c0,2.21-1.79,4-4,4
	s-4-1.79-4-4s1.79-4,4-4S72,55.79,72,58z M59,80c-6.07,0-11,4.93-11,11s4.93,11,11,11s11-4.93,11-11S65.07,80,59,80z M59,98
	c-3.86,0-7-3.14-7-7s3.14-7,7-7s7,3.14,7,7S62.86,98,59,98z M36.03,90.02c0,1.1-0.91,2.02-2.02,2.02S32,91.12,32,90.02
	S32.91,88,34.02,88S36.03,88.91,36.03,90.02z"></path>
</svg>
